<svg xmlns="http://www.w3.org/2000/svg" viewBox="0 0 100 100">
  <rect x="12" y="12" width="22" height="60" rx="11" fill="#A855F7"/>
  <rect x="66" y="12" width="22" height="60" rx="11" fill="#A855F7"/>
  <path d="M23 72 C23 90 77 90 77 72 L77 72 L23 72 Z" fill="#A855F7"/>
  <circle cx="50" cy="40" r="18" fill="#ffffff" stroke="#1F2937" stroke-width="3"/>
  <path d="M38 40 C40 36 44 34 50 34 C56 34 60 36 62 40" stroke="#6B7280" stroke-width="2" fill="none"/>
  <path d="M38 44 C42 46 46 48 50 48 C54 48 58 46 62 44" stroke="#6B7280" stroke-width="2" fill="none"/>
  <circle cx="42" cy="38" r="2.2" fill="#EC4899"/>
  <circle cx="58" cy="38" r="2.2" fill="#EC4899"/>
  <circle cx="50" cy="46" r="2.2" fill="#EC4899"/>
</svg>